<?xml version="1.0" encoding="UTF-8"?>
<svg id="Layer_1" xmlns="http://www.w3.org/2000/svg" viewBox="0 0 2560 542">
  <defs>
    <style>
      .cls-1 {
        fill: #fff;
      }

      .cls-2 {
        fill: #ebebeb;
      }
    </style>
  </defs>
  <path class="cls-1" d="M0,179V0C297.67,0,595.33,0,893,0c-1.43.36-2.85.94-4.3,1.04-10.46.76-20.91,1.55-31.38,2.11-15.31.81-30.04,4.09-43.64,11.17-27.68,14.4-45.39,35.93-45.43,68.48-.18,145.79-.11,291.59-.11,437.38,0,1.76.19,3.52.3,5.34h126.32c0-2.59,0-4.89,0-7.18,0-170.45-.02-340.91,0-511.36,0-2.32.17-4.65.26-6.97,201.33,0,402.67,0,604,0-1.27.35-2.52.91-3.8,1.01-10.62.78-21.25,1.54-31.88,2.17-16.68.99-32.6,4.87-47.13,13.18-27.3,15.59-42.07,38.44-42.01,70.77.25,143.8.11,287.6.11,431.4v6.83h119.2c1.19-11.42,2.32-22.37,3.57-34.41,2.36,2.01,3.73,3.15,5.07,4.33,15.49,13.49,32.8,23.89,52.22,30.63,37.64,13.08,76.1,14.35,114.64,5.67,60.01-13.52,102.74-48.4,124.25-106.61,15.75-42.59,16.52-86.55,4.3-130.08-16.57-59.04-54.13-99.14-112.89-118.11-29.39-9.49-59.69-11.41-90.31-7.61-32.76,4.07-63.13,14.33-89.45,34.94-.86.67-1.85,1.17-3.51,2.21-.13-2.77-.32-4.86-.32-6.94.16-64.82.33-129.64.52-194.45,0-1.65.27-3.29.42-4.94,352.67,0,705.33,0,1058,0v260c-.39-1.25-.98-2.47-1.13-3.74-1.72-14.7-3.25-29.42-5.09-44.1-2.63-20.93-20.82-38.17-41.79-38.96-16.31-.62-32.65-.49-48.98-.28-5.11.06-6.37-1.54-6.35-6.54.2-45.15.12-90.31.11-135.47v-6.73c-6.38.4-12.01.6-17.61,1.12-13.07,1.23-26.31,1.66-39.15,4.12-45.94,8.79-71.79,40.73-71.6,87.42.07,17.99.28,35.99.45,53.98.03,3.01.09,5.41-4.27,5.52-19.65.48-39.29,1.24-58.93,1.98-9.09.34-18.17.86-27.57,1.32,0,12.73-.36,25.04.08,37.33.83,23.22,20.55,42.99,43.76,43.87,13.31.5,26.65.2,39.98.26,6.79.03,6.82.02,6.82,6.91,0,37.49-.32,74.99.16,112.47.21,16.26.46,32.8,3.45,48.69,17.44,92.85,123.85,140.74,205.37,93,2.93-1.72,4.16-3.5,4.14-6.99-.16-24.33-.08-48.65-.1-72.98,0-1.55-.22-3.11-.35-4.82-3.8.89-6.99,1.77-10.24,2.36-16.62,3.02-32.95,2.37-46.6-8.63-17.36-13.99-27.73-32.14-27.79-55.08-.09-35.99-.02-71.98-.02-107.97,0-1.97,0-3.95,0-6.38,2.73-.17,5-.44,7.28-.45,31.99-.09,63.98-.15,95.97-.22v281H0c0-108,0-216,0-324,.41,1.24.99,2.44,1.2,3.71,3.47,21.44,22.06,38.36,43.68,39.13,13.15.47,26.33.17,39.49.26,2.12.01,4.24.24,6.91.4,0,2.36,0,4.32,0,6.28,0,38.5-.38,77,.18,115.49.24,16.25.77,32.81,4.04,48.63,18.92,91.55,125.29,137.81,205.54,90.01,2.83-1.68,3.75-3.49,3.73-6.7-.14-24.33-.07-48.66-.09-73,0-1.56-.19-3.13-.31-5.05-1.37.37-2.14.58-2.92.79-11.71,3.2-23.45,4.03-35.54,1.87-24.94-4.45-46.24-36.74-46.29-60.01-.08-37.83-.03-75.66-.01-113.49,0-1.46.16-2.93.29-5.2h101.6c.12-1.78.33-2.77.22-3.72-1.76-15.53-2.85-31.19-5.53-46.56-3.89-22.31-21.18-36.95-43.89-37.79-15.31-.57-30.66-.19-45.99-.28-2.09-.01-4.18-.29-6.79-.49V24.22c-11.86.72-23.14,1.35-34.42,2.1-15.19,1.01-30.13,3.33-44.02,9.93-32.14,15.28-50.79,39.34-49.91,76.4.47,19.49.02,39,.21,58.49.04,3.87-1.02,5.11-5,5.19-14.15.31-28.29,1.14-42.44,1.59-14.64.46-29.29.71-43.93,1.06ZM2111.48,525.77c7.63,0,14.92.09,22.21-.02,19.81-.28,39.65-.06,59.42-1.15,17.75-.97,28.12-10.73,31.57-28.02,1.2-6,1.98-12.2,2-18.31.16-55.33.13-110.66.07-165.98,0-5.15-.37-10.32-.86-15.45-4.59-47.98-28.79-82.77-71.25-104.98-29.93-15.65-62.49-21.23-95.72-23.51-33.35-2.29-66.54-.46-99.55,4.85-15.06,2.42-29.76,5.84-42.33,15.1-13.66,10.07-20.45,23.28-18.04,40.6.96,6.92,1.46,13.89,2.34,20.82.97,7.65,2.14,15.27,3.28,23.31,2.51-1.02,4.29-1.91,6.16-2.48,14.28-4.31,28.35-9.82,42.94-12.54,26.98-5.04,54.39-4.57,81.65-2.07,15.3,1.4,30.12,5.12,43.39,13.62,15.93,10.21,23.62,28.94,20.64,48.2-.8-.2-1.62-.27-2.33-.6-25.87-11.78-53.13-18.04-81.36-20.2-30.93-2.37-61.59-.9-91.35,8.72-28.74,9.3-52.22,25.55-66.75,52.88-8.61,16.19-12.16,33.72-12.9,51.86-1.04,25.33,3.05,49.53,17.61,70.93,16.68,24.51,40.57,39.05,68.45,47.34,32.17,9.57,64.99,10.3,97.88,4.81,28.23-4.71,53.95-15.5,75.72-34.63.91-.8,2.03-1.37,3.56-2.39,1.23,10.1,2.36,19.45,3.56,29.28ZM601.66,525.77c7.55,0,14.7.09,21.84-.02,19.98-.29,39.98-.08,59.92-1.16,17.56-.95,27.78-10.48,31.34-27.61,1.24-5.98,2.01-12.18,2.02-18.28.16-55.99.14-111.99.07-167.98,0-5.48-.43-10.98-1.02-16.43-4.66-43.01-25.74-75.68-62.72-97.86-31.79-19.08-67.23-25.48-103.53-28.05-33.51-2.37-66.87-.51-100.04,4.84-13.7,2.21-27.12,5.25-39.01,12.87-15.1,9.68-23.38,22.95-21.39,41.44,1.1,10.25,2.38,20.48,3.64,30.71.6,4.83,1.35,9.64,2.01,14.3,10.71-3.75,20.55-7.95,30.78-10.64,35.62-9.36,71.82-9.23,108.05-4.76,14.28,1.76,27.96,6.21,39.45,15.54,14.38,11.68,18.24,27.25,16.85,45.41-1.85-.7-3.07-1.13-4.27-1.63-52.99-22.2-107.52-26.58-163.22-13-27.76,6.77-51.52,20.69-68.3,44.66-14.62,20.87-19.35,44.55-19.34,69.53,0,20.12,3.44,39.48,13.59,57.11,17,29.49,43.8,45.88,75.61,54.83,27.74,7.81,56.08,8.79,84.63,5.36,32.33-3.88,61.66-14.76,86.41-36.52.71-.62,1.58-1.04,3.1-2.03,1.2,9.99,2.31,19.32,3.52,29.38ZM1206.7,525.77c9.34,0,18.16.1,26.98-.02,18.31-.26,36.65-.12,54.92-1.14,16.41-.92,26.41-9.49,30.59-24.83,1.43-5.24,2.47-10.78,2.49-16.19.23-57.49.26-114.98.24-172.46,0-5.81-.44-11.64-1.09-17.42-4.76-42.39-25.51-74.71-61.88-96.8-32.01-19.44-67.76-25.93-104.39-28.52-33.5-2.37-66.86-.49-100.03,4.84-15.06,2.42-29.72,5.92-42.3,15.16-12.71,9.33-19.58,21.6-18.1,37.73.76,8.27,1.84,16.52,2.84,24.77.87,7.2,1.83,14.38,2.81,22.04,7.43-2.87,14.09-5.8,20.98-8.04,38.84-12.64,78.62-12.42,118.55-7.65,13.61,1.63,26.51,6.14,37.8,14.49,13.66,10.11,20.74,28.62,17.29,46.13-.94-.33-1.89-.59-2.78-.98-32.75-14.58-67.17-20.78-102.88-20.81-24.11-.03-47.86,2.4-70.79,10.2-30.62,10.41-54.76,28.54-68.19,58.88-8.77,19.8-10.64,40.74-9.49,62.08,1.03,19.11,5.98,37.1,16.69,53.14,17.43,26.1,42.73,40.98,72.26,49.26,29.11,8.16,58.83,9.03,88.61,4.88,30.94-4.31,59.16-15.31,82.79-36.47.57-.51,1.37-.76,2.65-1.45,1.16,9.84,2.27,19.2,3.45,29.2Z"/>
  <path class="cls-2" d="M1502,0c-.15,1.65-.42,3.29-.42,4.94-.19,64.82-.37,129.64-.52,194.45,0,2.09.18,4.17.32,6.94,1.66-1.04,2.65-1.54,3.51-2.21,26.32-20.61,56.69-30.87,89.45-34.94,30.62-3.81,60.92-1.88,90.31,7.61,58.77,18.97,96.33,59.07,112.89,118.11,12.21,43.53,11.44,87.48-4.3,130.08-21.52,58.21-64.25,93.09-124.25,106.61-38.53,8.68-77,7.41-114.64-5.67-19.42-6.75-36.73-17.15-52.22-30.63-1.34-1.17-2.71-2.32-5.07-4.33-1.25,12.05-2.39,23-3.57,34.41h-119.2v-6.83c0-143.8.14-287.6-.11-431.4-.06-32.33,14.71-55.18,42.01-70.77,14.54-8.3,30.46-12.19,47.13-13.18,10.63-.63,21.26-1.39,31.88-2.17,1.29-.09,2.54-.66,3.8-1.01,1,0,2,0,3,0ZM1501.03,352.27c0,8.17-.3,16.35.12,24.49.22,4.19,1.05,8.62,2.75,12.42,4.99,11.09,12.36,20.57,21.91,28.13,28.89,22.86,61.3,27.16,95.62,16.05,26.03-8.43,42.85-26.65,50-53.34,3.31-12.35,4.04-24.9,2.85-37.62-3.07-32.82-18.62-57-49.66-69.42-9.23-3.7-19.56-5.52-29.54-6.33-31.63-2.57-58.74,7.54-79.92,31.6-9.56,10.87-16.25,23.08-14.25,38.52.66,5.08.1,10.32.1,15.49Z"/>
  <path class="cls-2" d="M0,179c14.64-.34,29.29-.59,43.93-1.06,14.15-.45,28.29-1.28,42.44-1.59,3.98-.09,5.04-1.32,5-5.19-.19-19.5.25-39.01-.21-58.49-.89-37.06,17.77-61.12,49.91-76.4,13.89-6.6,28.84-8.92,44.02-9.93,11.27-.75,22.56-1.38,34.42-2.1v148.07c2.61.2,4.7.48,6.79.49,15.33.09,30.68-.29,45.99.28,22.71.84,40,15.48,43.89,37.79,2.68,15.37,3.77,31.03,5.53,46.56.11.95-.1,1.94-.22,3.72h-101.6c-.13,2.27-.29,3.73-.29,5.2-.01,37.83-.07,75.66.01,113.49.05,23.26,21.35,55.55,46.29,60.01,12.09,2.16,23.83,1.33,35.54-1.87.77-.21,1.55-.42,2.92-.79.12,1.92.31,3.48.31,5.05.02,24.33-.05,48.66.09,73,.02,3.22-.9,5.02-3.73,6.7-80.25,47.8-186.62,1.54-205.54-90.01-3.27-15.82-3.8-32.39-4.04-48.63-.56-38.49-.18-76.99-.18-115.49,0-1.96,0-3.92,0-6.28-2.67-.16-4.79-.39-6.91-.4-13.16-.09-26.34.21-39.49-.26-21.62-.77-40.21-17.68-43.68-39.13-.21-1.27-.79-2.47-1.2-3.71,0-13,0-26,0-39Z"/>
  <path class="cls-2" d="M2560,261c-31.99.07-63.98.12-95.97.22-2.27,0-4.55.27-7.28.45,0,2.43,0,4.41,0,6.38,0,35.99-.07,71.98.02,107.97.06,22.95,10.44,41.1,27.79,55.08,13.65,11,29.98,11.65,46.6,8.63,3.25-.59,6.44-1.48,10.24-2.36.13,1.72.34,3.27.35,4.82.02,24.33-.06,48.65.1,72.98.02,3.49-1.2,5.27-4.14,6.99-81.52,47.74-187.93-.15-205.37-93-2.98-15.89-3.24-32.43-3.45-48.69-.48-37.48-.15-74.98-.16-112.47,0-6.89-.03-6.88-6.82-6.91-13.33-.06-26.67.24-39.98-.26-23.22-.87-42.93-20.65-43.76-43.87-.44-12.29-.08-24.6-.08-37.33,9.4-.45,18.48-.97,27.57-1.32,19.64-.74,39.28-1.5,58.93-1.98,4.35-.11,4.29-2.51,4.27-5.52-.17-17.99-.37-35.99-.45-53.98-.19-46.68,25.66-78.63,71.6-87.42,12.84-2.46,26.08-2.89,39.15-4.12,5.6-.53,11.24-.73,17.61-1.12v6.73c0,45.16.08,90.31-.11,135.47-.02,5.01,1.24,6.61,6.35,6.54,16.32-.21,32.67-.34,48.98.28,20.97.8,39.16,18.03,41.79,38.96,1.84,14.68,3.36,29.4,5.09,44.1.15,1.27.74,2.5,1.13,3.74v1Z"/>
  <path class="cls-2" d="M895,0c-.09,2.32-.26,4.65-.26,6.97,0,170.45,0,340.91,0,511.36,0,2.29,0,4.58,0,7.18h-126.32c-.11-1.82-.3-3.58-.3-5.34,0-145.79-.07-291.59.11-437.38.04-32.55,17.75-54.08,45.43-68.48,13.6-7.08,28.33-10.35,43.64-11.17,10.47-.56,20.93-1.34,31.38-2.11,1.45-.11,2.87-.68,4.3-1.04.67,0,1.33,0,2,0Z"/>
  <path class="cls-2" d="M2111.48,525.77c-1.19-9.82-2.33-19.18-3.56-29.28-1.53,1.01-2.65,1.58-3.56,2.39-21.77,19.13-47.49,29.93-75.72,34.63-32.89,5.48-65.71,4.75-97.88-4.81-27.88-8.29-51.77-22.82-68.45-47.34-14.56-21.4-18.64-45.6-17.61-70.93.74-18.14,4.29-35.67,12.9-51.86,14.54-27.33,38.01-43.58,66.75-52.88,29.76-9.63,60.41-11.1,91.35-8.72,28.23,2.17,55.49,8.42,81.36,20.2.71.32,1.53.4,2.33.6,2.98-19.25-4.71-37.99-20.64-48.2-13.26-8.5-28.08-12.22-43.39-13.62-27.26-2.5-54.67-2.97-81.65,2.07-14.58,2.73-28.65,8.24-42.94,12.54-1.88.57-3.66,1.46-6.16,2.48-1.14-8.04-2.31-15.67-3.28-23.31-.88-6.93-1.38-13.91-2.34-20.82-2.41-17.32,4.38-30.53,18.04-40.6,12.56-9.26,27.27-12.68,42.33-15.1,33.01-5.31,66.2-7.14,99.55-4.85,33.23,2.28,65.79,7.86,95.72,23.51,42.45,22.2,66.66,57,71.25,104.98.49,5.13.85,10.3.86,15.45.05,55.33.08,110.66-.07,165.98-.02,6.11-.8,12.31-2,18.31-3.44,17.3-13.82,27.05-31.57,28.02-19.77,1.09-39.61.87-59.42,1.15-7.29.1-14.59.02-22.21.02ZM2100.11,411.48c0-4.17.29-8.36-.13-12.49-.19-1.84-1.33-4.28-2.81-5.2-28.04-17.45-58.37-23.86-90.8-16.81-20.1,4.37-31.15,19.13-31.49,39.53-.34,20.07,10.17,34.75,30.32,39.74,30.43,7.53,58.35,1.32,83.35-17.73,8.13-6.2,13.72-13.53,11.58-24.55-.16-.8-.02-1.66-.03-2.5Z"/>
  <path class="cls-2" d="M601.66,525.77c-1.2-10.06-2.32-19.39-3.52-29.38-1.52.98-2.4,1.41-3.1,2.03-24.75,21.76-54.08,32.63-86.41,36.52-28.56,3.43-56.89,2.45-84.63-5.36-31.81-8.95-58.61-25.34-75.61-54.83-10.16-17.63-13.58-36.99-13.59-57.11-.01-24.98,4.72-48.66,19.34-69.53,16.79-23.97,40.55-37.89,68.3-44.66,55.7-13.58,110.24-9.2,163.22,13,1.19.5,2.42.93,4.27,1.63,1.38-18.16-2.48-33.73-16.85-45.41-11.49-9.33-25.17-13.79-39.45-15.54-36.23-4.46-72.43-4.59-108.05,4.76-10.24,2.69-20.07,6.89-30.78,10.64-.66-4.66-1.42-9.47-2.01-14.3-1.27-10.23-2.54-20.46-3.64-30.71-1.99-18.48,6.3-31.76,21.39-41.44,11.89-7.63,25.31-10.66,39.01-12.87,33.17-5.35,66.54-7.2,100.04-4.84,36.3,2.56,71.74,8.97,103.53,28.05,36.98,22.19,58.06,54.85,62.72,97.86.59,5.45,1.01,10.95,1.02,16.43.06,55.99.09,111.99-.07,167.98-.02,6.1-.78,12.3-2.02,18.28-3.56,17.13-13.78,26.66-31.34,27.61-19.94,1.08-39.94.87-59.92,1.16-7.14.1-14.28.02-21.84.02ZM520.34,373.79c-6.45.67-12.95.99-19.33,2.07-22.68,3.85-35.36,18.52-35.86,41.08-.47,20.88,11.86,36.26,34.11,40.11,10.81,1.87,22.27,2.15,33.18.91,21.06-2.4,39.6-11,54.15-27.06,2.6-2.87,3.9-5.88,3.73-9.86-.29-6.65-.33-13.34.01-19.99.21-4.2-1.28-6.61-4.87-8.76-20.07-12-41.8-17.79-65.12-18.5Z"/>
  <path class="cls-2" d="M1206.7,525.77c-1.18-9.99-2.29-19.35-3.45-29.2-1.28.69-2.09.94-2.65,1.45-23.63,21.16-51.86,32.17-82.79,36.47-29.78,4.15-59.5,3.28-88.61-4.88-29.53-8.28-54.83-23.16-72.26-49.26-10.71-16.04-15.66-34.02-16.69-53.14-1.15-21.34.73-42.27,9.49-62.08,13.43-30.34,37.57-48.47,68.19-58.88,22.93-7.79,46.68-10.22,70.79-10.2,35.71.04,70.13,6.24,102.88,20.81.89.4,1.84.65,2.78.98,3.45-17.51-3.63-36.03-17.29-46.13-11.29-8.35-24.19-12.86-37.8-14.49-39.93-4.78-79.71-4.99-118.55,7.65-6.89,2.24-13.55,5.17-20.98,8.04-.98-7.66-1.94-14.84-2.81-22.04-1-8.25-2.08-16.5-2.84-24.77-1.48-16.13,5.4-28.4,18.1-37.73,12.58-9.23,27.24-12.73,42.3-15.16,33.17-5.34,66.53-7.21,100.03-4.84,36.64,2.59,72.39,9.08,104.39,28.52,36.37,22.09,57.12,54.41,61.88,96.8.65,5.78,1.09,11.61,1.09,17.42.02,57.49,0,114.98-.24,172.46-.02,5.41-1.06,10.95-2.49,16.19-4.18,15.34-14.18,23.91-30.59,24.83-18.27,1.03-36.61.88-54.92,1.14-8.82.13-17.64.02-26.98.02ZM1195.27,411.49c0-3.17-.35-6.38.08-9.48.68-5.02-1.43-7.79-5.69-10.27-24.1-14.08-50.11-19.69-77.67-16.76-24.21,2.57-43.9,15.39-41.29,47.53,1.03,12.68,6.67,23.02,18.02,28.66,7.57,3.76,16.16,6.53,24.54,7.39,27.14,2.79,51.74-4.12,72.91-21.93,6.48-5.45,10.76-11.66,9.13-20.64-.26-1.45-.04-2.99-.04-4.49Z"/>
  <path class="cls-1" d="M1501.03,352.27c0-5.17.55-10.4-.1-15.49-2-15.44,4.69-27.65,14.25-38.52,21.17-24.07,48.29-34.17,79.92-31.6,9.98.81,20.31,2.63,29.54,6.33,31.05,12.43,46.59,36.61,49.66,69.42,1.19,12.72.45,25.27-2.85,37.62-7.15,26.68-23.97,44.91-50,53.34-34.32,11.11-66.73,6.81-95.62-16.05-9.55-7.56-16.93-17.04-21.91-28.13-1.71-3.8-2.54-8.23-2.75-12.42-.42-8.14-.12-16.33-.12-24.49Z"/>
  <path class="cls-1" d="M2100.12,411.48c0,.83-.13,1.69.02,2.5,2.13,11.02-3.45,18.36-11.58,24.55-25,19.05-52.93,25.26-83.35,17.73-20.15-4.99-30.66-19.67-30.32-39.74.35-20.4,11.39-35.16,31.49-39.53,32.42-7.05,62.75-.64,90.8,16.81,1.48.92,2.63,3.36,2.81,5.2.42,4.12.13,8.32.13,12.49Z"/>
  <path class="cls-1" d="M520.34,373.79c23.31.71,45.05,6.5,65.12,18.5,3.59,2.15,5.08,4.56,4.87,8.76-.34,6.65-.3,13.33-.01,19.99.17,3.98-1.13,6.99-3.73,9.86-14.55,16.06-33.09,24.66-54.15,27.06-10.91,1.24-22.37.96-33.18-.91-22.25-3.85-34.57-19.22-34.11-40.11.5-22.56,13.18-37.23,35.86-41.08,6.38-1.08,12.88-1.4,19.33-2.07Z"/>
  <path class="cls-1" d="M1195.27,411.49c0,1.5-.23,3.04.04,4.49,1.63,8.98-2.66,15.19-9.13,20.64-21.17,17.81-45.78,24.72-72.91,21.93-8.38-.86-16.97-3.63-24.54-7.39-11.35-5.65-16.99-15.99-18.02-28.66-2.61-32.14,17.08-44.96,41.29-47.53,27.56-2.93,53.57,2.68,77.67,16.76,4.26,2.49,6.37,5.25,5.69,10.27-.42,3.11-.08,6.32-.08,9.48Z"/>
</svg>